<svg xmlns="http://www.w3.org/2000/svg" viewBox="0 0 314.28 329.52">
    <title>wazum</title>
    <path d="M157.26,329.52c30.55,0,55.77-22.83,55.77-22.83,3.21-3,3-7.47,1.51-12q-19.2-60.9-37.75-121.8a13,13,0,0,1,1.29-9.4c9.62-14.73,19.67-24.77,29.72-39.29,4.06-6,5.77-5.12,12-1.49,9.83,5.78,15.17,9.2,22.64,16,5.77,5.13,4.91,9.19-2.36,12.17-15.38,6.19-24.36,9-40,15-4.7,1.71-5.13,3.85-3.85,7.91L228,274.06l82.29-72.42c3.85-3.42,4.7-6.41,3.43-11.11l-15.56-64.95c-2.77-12.18-2.13-20.09-1.27-30.13L305.08.17l-91.26,52.5a23.24,23.24,0,0,1-10,2.56l-93.12,0a23.25,23.25,0,0,1-10-2.57L9.43,0l8.06,95.29c.85,10,1.49,17.95-1.3,30.12L.56,190.35C-.73,195.05.13,198,4,201.46L86.18,274,118.07,173.8c1.28-4.06.86-6.19-3.84-7.91-15.59-6-24.56-8.82-39.94-15-7.27-3-8.12-7.06-2.35-12.18,7.49-6.83,12.83-10.25,22.66-16,6.2-3.63,7.91-4.48,12,1.5,10,14.54,20.07,24.58,29.68,39.33a13,13,0,0,1,1.27,9.4Q118.9,233.78,99.63,294.66c-1.5,4.49-1.72,9,1.48,12,0,0,25.2,22.87,55.75,22.89Zm21.4-57.88c6.41.22,7.26,3.42,6,9.62-1.92,9-3.85,16.66-8.77,25a41.62,41.62,0,0,1-37.57,0c-4.91-8.34-6.83-16-8.75-25-1.27-6.2-.42-9.4,6-9.61Z"
          style="fill:#ef4238"/>
</svg>
