<svg xmlns="http://www.w3.org/2000/svg" xml:space="preserve" style="fill-rule:evenodd;clip-rule:evenodd;stroke-miterlimit:10" viewBox="14 18 200 200"><path d="M199.1 37.8c-2.12-1.37-3.99.41-4.79 1.29-3.23 3.57-8.48 6.1-12.05 8.67-3.03 2.19-5.09 0-4.93-2.49.55-8.26 4.59-12.36 7.03-13.69 1.49-.81 2.32-.72 2.32-.72.81-.68 1.14-2.08.4-4.12-.73-2.04-4.33-2.63-5.96-.58-2.23 2.9-7.8 12.35-10.27 16.56-1.35 2.53-4.18 2.75-6.32 1.67-11.08-4.47-21.76-8.08-37.81-8.08-19.59 0-29.82 5.91-38.59 12.25-10.6 7.83-15.47 20.33-15.47 32.67 0 16.49 9.19 30.68 30.25 37.22 10.6 3.46 20.1 4.83 27.58 6.61 9.83 2.45 16.86 6 16.86 13.18 0 4.94-4.24 8.05-10.26 7.57-8.16-.68-15.83-5.4-30.3-5.4-23.31 0-36.53 10.68-45.08 25.2-7.55 12.86-10.66 27.4-19.85 33.94-3.86 2.9-7.58 2.32-10.17 4.14-2.86 1.99-2.291 7.086-.66 8.12 2.265 1.436 15.89 4 27.79-3.75 0 0 4.76-3.23 7.93-8.79 3.061-5.368 5.807-17.684 16.58-22.91 9.516-4.616 35.53-3.45 35.53-3.45l28.24-.4c23.64 0 40.76-12.4 40.76-33.42 0-18.23-10.92-31.88-36.84-39.38-12.37-3.8-22.49-4.05-31.71-8.35-6.05-2.85-8.64-6.04-8.64-10.98 0-6.46 6.08-10.34 17.69-10.34 12.5 0 20.74 4.82 29.96 9.16 4.5 2.27 7.33 2.86 11.43 2.86 9.48 0 16.41-7.15 16.41-14.98 0-4.34-2.31-7.37-1.8-11.17.69-5.18 8-12 11.95-12 1.64 0 2.44.4 3.24-.48 1.6-1.66 1.27-4.66-.45-5.63Z" style="fill:url(#a);fill-rule:nonzero;stroke:#f8fffe;stroke-width:1.08px"/><path d="M133.9 37.79c-20.52.67-37.05 12.77-37.05 30.42 0 10.9 6.36 18.8 21.96 23.25-6.67-3.19-8.61-6.8-8.61-11.5 0-6.47 6.07-10.89 17.68-10.89 10.92 0 18.83 3.79 27.52 8.13-4.9-2.77-13.13-11.12-13.13-11.12z" style="fill:url(#b);fill-rule:nonzero"/><path d="M82.61 174.4c8.816-3.642 46.14-2.65 46.14-2.65 16.62-2 32.05-9.5 32.05-22.2 0-9.8-7.42-16.19-15.43-19.3 2.68 2.3 3.41 4.9 3.41 7.9 0 5.95-5.07 9.8-11.2 9.3-8.83-.75-15.5-6.1-30.93-6.1-22.27 0-35.57 10.3-44.4 25.75-7.56 13.35-10.15 26.65-20.46 33.75-3.86 2.9-7.304 1.679-9.59 3.65-2.32 2-2.6 5.45 1.64 6.65 3.584 1.09 17.992-2.651 22.516-9.411C68.484 183.614 76.754 176.82 82.61 174.4" style="fill:url(#c);fill-rule:nonzero"/><defs><linearGradient id="a" x1="0" x2="1" y1="0" y2="0" gradientTransform="translate(28.35 120.1)scale(171.75)" gradientUnits="userSpaceOnUse"><stop offset="0" style="stop-color:#ff8700;stop-opacity:1"/><stop offset="1" style="stop-color:#ff8700;stop-opacity:1"/></linearGradient><linearGradient id="b" x1="0" x2="1" y1="0" y2="0" gradientTransform="translate(96.86 64.62)scale(58.54)" gradientUnits="userSpaceOnUse"><stop offset="0" style="stop-color:#cc6d00;stop-opacity:1"/><stop offset="1" style="stop-color:#e07800;stop-opacity:1"/></linearGradient><linearGradient id="c" x1="0" x2="1" y1="0" y2="0" gradientTransform="translate(28.39 176.9)scale(132.41)" gradientUnits="userSpaceOnUse"><stop offset="0" style="stop-color:#ff8700;stop-opacity:1"/><stop offset="1" style="stop-color:#e07800;stop-opacity:1"/></linearGradient></defs></svg>